<svg xmlns="http://www.w3.org/2000/svg" width="128" height="65" viewBox="0 0 128 65"><defs><linearGradient id="a" x1="-5.817%" x2="712.861%" y1="10.533%" y2="529.75%"><stop stop-color="#0074BB" offset="0%"/><stop stop-color="#005283" offset="100%"/></linearGradient><linearGradient id="b" x1="-89.398%" x2="719.671%" y1="-38.202%" y2="472.45%"><stop stop-color="#0074BB" offset="0%"/><stop stop-color="#005283" offset="100%"/></linearGradient><linearGradient id="c" x1="-163.634%" x2="651.695%" y1="-86.267%" y2="433.437%"><stop stop-color="#0074BB" offset="0%"/><stop stop-color="#005283" offset="100%"/></linearGradient><linearGradient id="d" x1="-258.616%" x2="600.618%" y1="-125.04%" y2="384.259%"><stop stop-color="#0074BB" offset="0%"/><stop stop-color="#005283" offset="100%"/></linearGradient><linearGradient id="e" x1="-398.546%" x2="647.006%" y1="-174.023%" y2="337.536%"><stop stop-color="#0074BB" offset="0%"/><stop stop-color="#005283" offset="100%"/></linearGradient><linearGradient id="f" x1="-306.698%" x2="2856.756%" y1="-151.519%" y2="1712.246%"><stop stop-color="#0074BB" offset="0%"/><stop stop-color="#005283" offset="100%"/></linearGradient><linearGradient id="g" x1="-456.101%" x2="3388.277%" y1="-204.249%" y2="1682.412%"><stop stop-color="#0074BB" offset="0%"/><stop stop-color="#005283" offset="100%"/></linearGradient><linearGradient id="h" x1="-224.991%" x2="1229.326%" y1="-101.293%" y2="737.675%"><stop stop-color="#0074BB" offset="0%"/><stop stop-color="#005283" offset="100%"/></linearGradient><linearGradient id="i" x1="-282.417%" x2="1105.761%" y1="-143.43%" y2="698.781%"><stop stop-color="#0074BB" offset="0%"/><stop stop-color="#005283" offset="100%"/></linearGradient><linearGradient id="j" x1="-327.247%" x2="993.835%" y1="-189.93%" y2="648.09%"><stop stop-color="#0074BB" offset="0%"/><stop stop-color="#005283" offset="100%"/></linearGradient><linearGradient id="k" x1="-447.787%" x2="1006.53%" y1="-229.79%" y2="609.178%"><stop stop-color="#0074BB" offset="0%"/><stop stop-color="#005283" offset="100%"/></linearGradient><linearGradient id="l" x1="-495.088%" x2="893.074%" y1="-272.411%" y2="569.791%"><stop stop-color="#0074BB" offset="0%"/><stop stop-color="#005283" offset="100%"/></linearGradient><linearGradient id="m" x1="-685.524%" x2="1014.493%" y1="-314.431%" y2="517.121%"><stop stop-color="#0074BB" offset="0%"/><stop stop-color="#005283" offset="100%"/></linearGradient><linearGradient id="n" x1="-626.279%" x2="798.712%" y1="-367.94%" y2="489.471%"><stop stop-color="#0074BB" offset="0%"/><stop stop-color="#005283" offset="100%"/></linearGradient><linearGradient id="o" x1="-833.989%" x2="875.979%" y1="-297.736%" y2="370.766%"><stop stop-color="#0074BB" offset="0%"/><stop stop-color="#005283" offset="100%"/></linearGradient><linearGradient id="p" x1="-504.135%" x2="3517.45%" y1="-200.374%" y2="1686.449%"><stop stop-color="#0074BB" offset="0%"/><stop stop-color="#005283" offset="100%"/></linearGradient><linearGradient id="q" x1="-392.941%" x2="2417.081%" y1="-231.616%" y2="1634.985%"><stop stop-color="#0074BB" offset="0%"/><stop stop-color="#005283" offset="100%"/></linearGradient><linearGradient id="r" x1="85.035%" x2="1665.324%" y1="76.378%" y2="820.008%"><stop stop-color="#0074BB" offset="0%"/><stop stop-color="#005283" offset="100%"/></linearGradient><linearGradient id="s" x1="27.29%" x2="1531.628%" y1="34.538%" y2="765.615%"><stop stop-color="#0074BB" offset="0%"/><stop stop-color="#005283" offset="100%"/></linearGradient><linearGradient id="t" x1="53.294%" x2="43.489%" y1="17.31%" y2="73.498%"><stop stop-color="#A1BF36" offset="0%"/><stop stop-color="#7C952B" offset="100%"/></linearGradient><linearGradient id="u" x1="52.993%" x2="47.475%" y1="35.794%" y2="78.457%"><stop stop-color="#E3A417" offset="0%"/><stop stop-color="#AD8012" offset="100%"/></linearGradient><linearGradient id="v" x1="52.14%" x2="47.522%" y1="48.746%" y2="76.358%"><stop stop-color="#744A81" offset="0%"/><stop stop-color="#53365C" offset="100%"/></linearGradient><linearGradient id="w" x1="43.449%" x2="34.987%" y1="57.195%" y2="89.184%"><stop stop-color="#C4006A" offset="0%"/><stop stop-color="#87004B" offset="100%"/></linearGradient><linearGradient id="x" x1="48.356%" x2="35.304%" y1="48.671%" y2="92.222%"><stop stop-color="#0074BB" offset="0%"/><stop stop-color="#005283" offset="100%"/></linearGradient></defs><g fill="none"><path fill="url(#a)" d="M13.64 16.13h-2.18c-.2 0-.33-.2-.33-.43v-10c0-.15 0-.24-.05-.24 0 0-.05.04-.1.14L8.9 9.72a.82.82 0 0 1-.66.38H6.06c-.28 0-.57-.14-.7-.38L3.25 5.6a.68.68 0 0 1-.1-.14c-.04 0-.04.04-.04.23v10c0 .24-.14.43-.33.43H.6c-.2 0-.38-.1-.38-.34V1A.85.85 0 0 1 1.1.14h1.74c.33 0 .67.24.8.52l3.23 6.6c.1.2.14.28.23.28s.15-.1.24-.28l3.22-6.6c.14-.28.47-.52.8-.52h1.76a.85.85 0 0 1 .85.86v14.8c.05.23-.14.33-.33.33z" transform="translate(49.703 20.87)"/><path fill="url(#b)" d="M22.92 16.32c-3.55 0-6.1-2-6.1-6.7V6.75c0-4.75 2.55-6.7 6.1-6.7s6.1 2 6.1 6.7v2.9c0 4.7-2.55 6.68-6.1 6.68zm3.12-9.63c0-2.86-1-4.14-3.12-4.14-2.1 0-3.13 1.28-3.13 4.13v2.88c0 2.85 1 4.13 3.12 4.13 2.08 0 3.12-1.27 3.12-4.12v-2.9z" transform="translate(49.703 20.87)"/><path fill="url(#c)" d="M43.04 16.13h-2.17c-.52 0-.95 0-1.33-.76L34.76 4.9c-.05-.16-.15-.2-.2-.2-.04 0-.1.04-.1.2v10.8c0 .24-.18.43-.4.43H32.2a.42.42 0 0 1-.43-.43V1a.85.85 0 0 1 .86-.86h2.32c.47 0 .7.15.94.7l5 11.07c.06.1.1.2.2.2.05 0 .1-.05.1-.2V.58c0-.24.2-.43.42-.43h1.85c.24 0 .43.2.43.43v14.7a.85.85 0 0 1-.86.86z" transform="translate(49.703 20.87)"/><path fill="url(#d)" d="M51.9 16.32c-1.52 0-3.6-.15-4.2-.24-.4-.05-.58-.24-.58-.66V.9c0-.43.2-.62.57-.66.65-.1 2.68-.24 4.2-.24 4.3 0 6.72 2.32 6.72 6.6v3.17c0 4.22-2.46 6.55-6.72 6.55zm3.74-9.77c0-3.23-1.6-4.08-3.8-4.08-.8 0-1.36.04-1.8.04v11.16c.44 0 1 .05 1.8.05 2.14 0 3.8-.85 3.8-4.07V6.55z" transform="translate(49.703 20.87)"/><path fill="url(#e)" d="M70.46 15.98c-.7.1-1.5.3-4.07.3-2.8 0-4.98-.77-4.98-4.42V4.4C61.42.77 63.6 0 66.4 0c2.55 0 3.4.2 4.06.28.33.05.43.15.43.48v1.37c0 .24-.2.43-.44.43H66.1c-1.22 0-1.7.43-1.7 1.85v2.33h5.83c.23 0 .42.2.42.43v1.57c0 .23-.2.42-.42.42H64.4v2.8c0 1.43.47 1.85 1.7 1.85h4.36c.24 0 .43.2.43.43v1.37c0 .24-.15.34-.44.38z" transform="translate(49.703 20.87)"/><path fill="url(#f)" d="M1.37 4.5c-.42 0-1-.04-1.13-.04-.1 0-.14-.05-.14-.2V.34C.1.23.14.2.24.13.44.1 1 .06 1.37.06c1.2 0 1.85.6 1.85 1.8v.85c0 1.2-.66 1.8-1.85 1.8zM2.4 1.86c.02-.9-.4-1.1-1.03-1.1H.9V3.8h.47c.57 0 1.04-.24 1.04-1.1v-.85z" transform="translate(49.703 40.317)"/><path fill="url(#g)" d="M6.44 4.46c-.2.05-.43.1-1.1.1-.75 0-1.36-.2-1.36-1.2V1.34c0-1 .57-1.2 1.37-1.2.7 0 .95.06 1.1.1.1 0 .1.05.1.15v.38c0 .05-.06.1-.1.1h-1.2c-.32 0-.47.1-.47.52v.52h1.6c.06 0 .1.04.1.1v.42c0 .05-.04.1-.1.1H4.8v.8c0 .38.15.52.48.52h1.18c.05 0 .1.05.1.1v.38c.04.1 0 .1-.1.14z" transform="translate(49.703 40.317)"/><path fill="url(#h)" d="M3.4 9.15c-.32 0-.84-.04-1.17-.04v3.42c0 .14-.1.24-.24.24H.65c-.14 0-.28-.1-.28-.24V3.46c0-.28.14-.33.43-.38.67-.1 1.62-.2 2.56-.2 2.04 0 3.8.72 3.8 3.05v.1c0 2.36-1.76 3.12-3.75 3.12zm1.95-3.17c0-1.1-.66-1.52-2-1.52-.27 0-.94.05-1.17.05v3.1c.2 0 .94.04 1.18.04 1.42 0 2-.53 2-1.57v-.1z" transform="translate(57.753 37.47)"/><path fill="url(#i)" d="M15.53 12.76h-1.6c-.15 0-.2-.14-.3-.24l-1.9-3.5h-.18c-.33 0-.85-.05-1.18-.05v3.55c0 .14-.1.24-.24.24H8.8c-.13 0-.28-.1-.28-.24V3.46c0-.28.15-.33.43-.38.66-.1 1.6-.2 2.56-.2 2.04 0 3.8.72 3.8 3v.1c0 1.37-.72 2.27-1.76 2.65l2.04 3.84c.05.05.05.1.05.1.04.14 0 .2-.1.2zM13.6 5.88c0-1-.67-1.42-2-1.42-.28 0-.95.05-1.18.05v2.94c.2 0 .95.05 1.18.05 1.38 0 2-.4 2-1.52v-.1z" transform="translate(57.753 37.47)"/><path fill="url(#j)" d="M20.36 12.9c-2.18 0-3.74-1.18-3.74-4.08V7.07c0-2.9 1.56-4.08 3.74-4.08S24.1 4.2 24.1 7.06v1.75c0 2.85-1.56 4.08-3.74 4.08zm1.94-5.88c0-1.75-.6-2.5-1.9-2.5-1.27 0-1.88.75-1.88 2.5v1.75c0 1.76.6 2.52 1.9 2.52 1.27 0 1.88-.77 1.88-2.53V7.02z" transform="translate(57.753 37.47)"/><path fill="url(#k)" d="M28.84 9.15c-.33 0-.85-.04-1.2-.04v3.42c0 .14-.08.24-.22.24H26.1c-.15 0-.3-.1-.3-.24V3.46c0-.28.15-.33.43-.38.67-.1 1.6-.2 2.56-.2 2.03 0 3.78.72 3.78 3.05v.1c0 2.36-1.75 3.12-3.74 3.12zm1.94-3.17c0-1.1-.66-1.52-2-1.52-.27 0-.94.05-1.17.05v3.1c.2 0 .95.04 1.2.04 1.4 0 1.98-.53 1.98-1.57v-.1z" transform="translate(57.753 37.47)"/><path fill="url(#l)" d="M40.96 12.76h-1.6c-.15 0-.2-.14-.3-.24l-1.9-3.5H37c-.33 0-.85-.05-1.18-.05v3.55c0 .14-.1.24-.24.24h-1.32c-.15 0-.3-.1-.3-.24V3.46c0-.28.15-.33.44-.38.66-.1 1.6-.2 2.56-.2 2.03 0 3.78.72 3.78 3v.1c0 1.37-.7 2.27-1.75 2.65L41 12.47a.15.15 0 0 1 .06.1c.04.14 0 .2-.1.2zm-2-6.88c0-1-.65-1.42-1.98-1.42-.28 0-.94.05-1.18.05v2.95c.2 0 .95.04 1.18.04 1.38 0 2-.4 2-1.52v-.1z" transform="translate(57.753 37.47)"/><path fill="url(#m)" d="M47.78 12.7c-.43.06-.95.2-2.5.2-1.7 0-3.04-.47-3.04-2.7V5.6c0-2.23 1.32-2.7 3.03-2.7 1.56 0 2.08.1 2.5.18.2.05.3.1.3.3v.84c0 .14-.1.3-.3.3h-2.7c-.75 0-1.03.27-1.03 1.12v1.43h3.55c.13 0 .27.1.27.28v.95c0 .14-.14.28-.28.28h-3.56v1.7c0 .87.28 1.15 1.04 1.15h2.7c.14 0 .28.14.28.3v.84c0 .05-.1.1-.28.14z" transform="translate(57.753 37.47)"/><path fill="url(#n)" d="M55.83 4.55h-2.27v7.97c0 .14-.1.24-.3.24H52c-.15 0-.3-.1-.3-.24V4.55h-2.26c-.15 0-.3-.1-.3-.23V3.27c0-.14.1-.23.3-.23h6.4c.13 0 .27.1.27.23v1.05c0 .14-.13.23-.27.23z" transform="translate(57.753 37.47)"/><path fill="url(#o)" d="M62.6 12.7c-.43.06-.95.2-2.5.2-1.7 0-3.04-.47-3.04-2.7V5.6c0-2.23 1.33-2.7 3.03-2.7 1.55 0 2.07.1 2.5.18.2.05.28.1.28.3v.84c0 .14-.1.3-.28.3h-2.65c-.76 0-1.04.27-1.04 1.12v1.43h3.56c.14 0 .28.1.28.28v.95c0 .14-.1.28-.28.28H58.9v1.7c0 .87.3 1.15 1.05 1.15h2.65c.14 0 .28.14.28.3v.84c0 .05-.1.1-.28.14zM61.98.58l-1.56 1.6c-.1.1-.14.2-.33.2h-1.15c-.1 0-.1-.05-.1-.1 0-.04 0-.1.06-.14L60.15.57c.14-.14.2-.2.33-.2h1.37c.1 0 .15.06.15.1.03 0 .03.05 0 .1z" transform="translate(57.753 37.47)"/><path fill="url(#p)" d="M2.42 4.7c-.2.04-.67.1-1 .1C.66 4.8.05 4.6.05 3.6V.48c0-.04.04-.1.1-.1H.7c.06 0 .1.06.1.1v3.1c0 .37.1.5.48.5h1.1c.03 0 .13.06.13.1v.38c0 .1 0 .1-.1.15z" transform="translate(49.703 45.534)"/><path fill="url(#q)" d="M6.2 4.74h-.6c-.06 0-.1-.04-.1-.1l-.3-1.08H3.9l-.28 1.1c0 .04-.05.08-.1.08h-.66c-.05 0-.1-.04-.1-.1V4.6L3.7.9c.14-.52.56-.62.8-.62.23 0 .66.05.8.62l.95 3.7v.05c.05.04 0 .1-.05.1zM4.64 1.1c0-.06-.05-.1-.1-.1s-.1.04-.1.1l-.4 1.75h1.03L4.64 1.1z" transform="translate(49.703 45.534)"/><path fill="url(#r)" d="M6.16 11.62c-.43.1-1.76.2-2.56.2-1.94 0-3.46-.53-3.46-3.1V.9c0-.14.14-.28.3-.28h1.45c.14 0 .28.14.28.28v7.88c0 1 .28 1.28 1.18 1.28H6.1c.15 0 .3.14.3.28v.95c.04.23 0 .27-.24.32z" transform="translate(49.703 6.166)"/><path fill="url(#s)" d="M13.88 11.62c-.48.1-1.05.2-2.85.2-1.94 0-3.45-.53-3.45-3.1v-5.2C7.58.94 9.08.4 11.03.4c1.8 0 2.37.15 2.85.2.23.04.28.1.28.33v.95c0 .14-.14.28-.28.28h-3.04c-.85 0-1.18.3-1.18 1.28v1.6h4.03c.13 0 .27.16.27.3v1.1c0 .13-.14.27-.28.27H9.64v1.95c0 1 .33 1.28 1.18 1.28h3.03c.15 0 .3.14.3.28v.95c0 .33-.06.37-.3.42z" transform="translate(49.703 6.166)"/><path fill="url(#t)" d="M14.06 40.03L6.5 38.18a20.38 20.38 0 0 0 1.4-7.44c0-2.6-.5-5.17-1.5-7.64l7.52-1.9c1.23 3.08 1.9 6.26 1.9 9.5.04 3.2-.57 6.34-1.76 9.33z" transform="translate(.455)"/><path fill="url(#u)" d="M24.95 17.03c0-1.2-.23-3.04-.75-4.46l-3.4 1.14-3.9 1.3c.05.65.1 1.36.1 2.03 0 7.73-3.6 15.7-10.56 21.15l.9.2 6.68 1.6c3.07-2.8 5.54-5.92 7.38-9.34 2.37-4.27 3.55-8.87 3.55-13.6z" transform="translate(.455)"/><path fill="url(#v)" d="M35.52 7.26l-5.45 1.9a34.43 34.43 0 0 1 1 8.2c0 10.72-4.98 20.92-14.07 28.9l7.72 2.45c9.23-8.8 14.25-19.8 14.25-31.34 0-3.18-.57-7.3-1.66-10.72l-1.78.62z" transform="translate(.455)"/><path fill="url(#w)" d="M24.67 48.76l-7.72-2.47c2.6-4.9 3.98-10.4 3.98-15.7 0-5.4-1.37-10.63-4.03-15.56l7.3-2.42c3.08 5.7 4.64 11.76 4.64 17.97.05 6.1-1.14 12.47-4.17 18.16z" transform="translate(.455)"/><path fill="url(#x)" d="M35.9 57.77l-7.1-2.7A47.43 47.43 0 0 0 34 43.54a43.42 43.42 0 0 0 1.85-12.57c0-7.63-1.94-14.94-5.83-21.86l7.25-2.5c4.26 7.68 6.44 15.88 6.44 24.37 0 4.7-.7 9.4-2.03 13.95-1.28 4.46-3.22 8.77-5.78 12.85z" transform="translate(.455)"/><path fill="#FFF" d="M40.14 24.14l-.3 4.5-4.53.3 4.55.28.3 4.55.27-4.55 4.5-.3-4.5-.27zm-15-3.13l-.3 3.85-3.8.24 3.8.23.3 3.84.22-3.84 3.84-.24-3.84-.25zM35.25 7.5l-.38 5.7-5.63.37 5.63.33.38 5.7.38-5.7 5.63-.34-5.63-.37z"/><path fill="#C4006A" d="M50.7 56.77c-.43 0-.86-.04-1-.04-.04 0-.1-.05-.1-.14v-3.76c0-.1.06-.14.1-.14.15-.05.57-.05 1-.05 1 0 1.65.52 1.65 1.7v.77c0 1.13-.66 1.66-1.65 1.66zm1.18-2.4c0-1-.52-1.3-1.14-1.3h-.6v3.23h.6c.67 0 1.14-.28 1.14-1.28v-.67zm4.6 1.03h-1.8v.1c0 .66.23.9.75.9.33 0 .7 0 .95-.05h.05c.04 0 .1 0 .1.1v.18c0 .1 0 .1-.1.15-.33.04-.62.1-1 .1-.6 0-1.23-.3-1.23-1.34v-.47c0-.76.43-1.28 1.2-1.28.8 0 1.17.5 1.17 1.27v.28s-.05.05-.1.05zm-.4-.38c.02-.62-.22-.85-.7-.85-.47 0-.7.28-.7.85v.05l1.4-.05zm3.23 1.75c-.17 0-.55 0-.84-.1-.04 0-.1-.04-.1-.08v-.2c0-.05.06-.1.1-.1.3.05.67.05.86.05.33 0 .52-.1.52-.38 0-.14-.1-.28-.43-.47l-.56-.34c-.33-.2-.57-.42-.57-.76 0-.56.43-.7 1-.7.28 0 .57.04.85.1.05 0 .1.04.1.08v.2c0 .04-.05.1-.1.1-.2 0-.52-.06-.85-.06-.3 0-.52.05-.52.33 0 .14.14.3.38.43l.52.33c.47.3.6.53.6.82.06.52-.32.75-.93.75zm7.4 0h-.23c-.05 0-.1-.04-.1-.1v-.13c-.28.14-.52.28-.85.28-.47 0-.9-.2-.9-.9v-.05c0-.57.33-.9 1.32-.9h.38v-.23c0-.48-.14-.62-.56-.62-.34 0-.62 0-.86.05h-.04c-.05 0-.1 0-.1-.1v-.2c0-.03.05-.08.1-.08.23-.06.47-.1.85-.1.77 0 1.05.37 1.05 1.04v1.9c.1.1.05.13-.05.13zm-.38-1.47h-.37c-.67 0-.86.15-.86.53v.04c0 .38.18.48.5.48.25 0 .5-.1.72-.24v-.8zm4.22 1.43c-.2.05-.43.05-.67.05-.75 0-1.13-.53-1.13-1.33v-.43c0-.8.43-1.33 1.14-1.33.23 0 .52.04.66.04.1 0 .1.05.1.14v.2c0 .04-.06.1-.1.1-.24-.06-.43-.06-.67-.06-.42 0-.66.28-.66.9v.43c0 .6.25.9.68.9.28 0 .42 0 .66-.05.04 0 .1.05.1.1v.2c0 .08 0 .13-.1.13zm3.4.05c-.1 0-.23.04-.32.04-.52 0-.76-.14-.76-.7v-1.9l-.52-.05c-.05 0-.1-.05-.1-.1v-.14c0-.05.05-.1.1-.1h.52v-.52c0-.03.05-.08.1-.08l.28-.05c.05 0 .1.05.1.1v.6h.56c.05 0 .1.06.1.1v.2c0 .04-.05.1-.1.1h-.57v1.9c0 .27.1.32.3.32h.27c.1 0 .1 0 .1.1v.18c.04-.05.04 0-.05 0zm4.03-1.38h-1.8v.1c0 .66.24.9.76.9.33 0 .7 0 .95-.05h.05c.04 0 .1 0 .1.1v.18c0 .1 0 .1-.1.15-.34.04-.62.1-1 .1-.62 0-1.23-.3-1.23-1.34v-.47c0-.76.43-1.28 1.18-1.28.8 0 1.2.5 1.2 1.27v.28s-.06.05-.1.05zm-.38-.38c0-.62-.24-.85-.72-.85-.47 0-.7.28-.7.85v.05l1.4-.05zm4.54 1.75h-.28c-.05 0-.1-.04-.1-.1v-.08c-.28.18-.52.22-.85.22-.65 0-.94-.42-.94-1.13v-1.82c0-.04.05-.1.1-.1h.28c.05 0 .1.06.1.1v1.8c0 .57.2.72.6.72.25 0 .48-.1.77-.2v-2.27c0-.05.06-.1.1-.1h.3c.03 0 .08.05.08.1v2.8c-.05 0-.1.05-.14.05zm3.27-2.65c-.23 0-.47.05-.75.24v2.27c0 .05-.05.1-.1.1h-.28c-.05 0-.1-.05-.1-.1v-2.8c0-.04.05-.1.1-.1h.24c.06 0 .1.06.1.1v.1c.3-.2.52-.24.76-.24.1 0 .1.04.1.1V54c.1.1.04.1-.05.1zm2.75 2.66c-.2 0-.57 0-.85-.1-.05 0-.1-.05-.1-.1v-.18c0-.05.05-.1.1-.1.3.05.66.05.85.05.33 0 .52-.1.52-.38 0-.14-.1-.28-.42-.47l-.57-.34c-.33-.2-.57-.42-.57-.76 0-.56.44-.7 1-.7.3 0 .62.04.86.1.05 0 .1.04.1.08v.2c0 .04-.05.1-.1.1-.2 0-.52-.06-.85-.06-.28 0-.5.05-.5.33 0 .14.13.3.36.43l.53.33c.46.3.6.53.6.82.05.52-.33.75-.95.75zm7.63-1.38h-1.8v.1c0 .66.23.9.76.9.33 0 .7 0 .94-.05h.05c.05 0 .1 0 .1.1v.18c0 .1 0 .1-.1.15-.33.04-.62.1-1 .1-.6 0-1.23-.3-1.23-1.34v-.47c0-.76.43-1.28 1.2-1.28.8 0 1.17.5 1.17 1.27v.28s0 .05-.1.05zm-.38-.38c0-.62-.24-.85-.7-.85-.48 0-.72.28-.72.85v.05l1.42-.05zm4.54 1.75h-.23c-.04 0-.1-.04-.1-.1v-1.8c0-.56-.18-.7-.6-.7-.24 0-.48.1-.7.2v2.26c0 .05-.06.1-.1.1h-.3c-.04 0-.1-.05-.1-.1v-2.8c0-.04.06-.1.1-.1h.3c.04 0 .1.06.1.1v.1c.27-.2.5-.24.84-.24.66 0 .95.42.95 1.13v1.8c-.06.1-.1.14-.15.14zm4.46-2.65l-.2.05c.1.1.2.28.2.57v.04c0 .62-.38.95-1.2.95-.27 0-.46-.05-.6-.1-.1.05-.15.1-.15.2s.05.14.2.2l.8.18c.52.15 1.04.3 1.04.8v.06c0 .52-.34.85-1.24.85-.85 0-1.23-.32-1.23-.84v-.14c0-.3.14-.57.33-.7h-.05c-.18-.1-.22-.25-.22-.44a.4.4 0 0 1 .23-.38c-.18-.14-.22-.33-.22-.62v-.04c0-.48.28-.95 1.18-.95h1.18c.05 0 .15.03.15.13v.14c-.1 0-.16.05-.2.05zm-.43 2.85c0-.2-.2-.3-.66-.43l-.6-.14c-.15.14-.3.28-.3.57V57c0 .3.2.53.8.53.63-.04.77-.23.77-.57zm-.05-2.24c0-.33-.14-.56-.7-.56-.62 0-.77.28-.77.57v.04c0 .24.1.57.76.57.58-.04.72-.23.72-.6zm4.3 2.05H108c-.05 0-.1-.05-.1-.1v-.14c-.28.14-.52.28-.85.28-.48 0-.9-.2-.9-.9v-.05c0-.57.33-.9 1.32-.9h.43v-.23c0-.48-.14-.62-.57-.62-.33 0-.6 0-.85.05h-.05c-.05 0-.1 0-.1-.1v-.2c0-.03.06-.08.1-.08.24-.06.47-.1.85-.1.76 0 1.05.37 1.05 1.04v1.9c.04.1 0 .13-.1.13zm-.37-1.48h-.38c-.66 0-.85.15-.85.53v.04c0 .38.2.48.52.48.24 0 .48-.1.7-.24v-.8zm4.83-1.18l-.2.05c.1.1.2.28.2.57v.04c0 .62-.38.95-1.18.95-.28 0-.47-.05-.62-.1-.1.05-.14.1-.14.2s.05.14.2.2l.8.18c.52.15 1.04.3 1.04.8v.06c0 .52-.33.85-1.23.85-.86 0-1.23-.32-1.23-.84v-.14c0-.3.14-.57.33-.7h-.05c-.2-.1-.24-.25-.24-.44a.4.4 0 0 1 .24-.38c-.2-.14-.24-.33-.24-.62v-.04c0-.48.3-.95 1.2-.95h1.17c.05 0 .14.03.14.13v.14c-.1 0-.14.05-.2.05zm-.42 2.85c0-.2-.2-.3-.67-.43l-.62-.14c-.14.14-.3.28-.3.57V57c0 .3.2.53.77.53.66-.04.8-.23.8-.57zm-.05-2.24c0-.33-.13-.56-.7-.56-.62 0-.7.28-.7.57v.04c0 .24.08.57.7.57.57-.04.7-.23.7-.6zm4.55.67h-1.8v.1c0 .66.24.9.76.9.34 0 .72 0 .96-.05h.05c.05 0 .1 0 .1.1v.18c0 .1 0 .1-.1.15-.32.04-.6.1-1 .1-.6 0-1.22-.3-1.22-1.34v-.47c0-.76.43-1.28 1.2-1.28.8 0 1.17.5 1.17 1.27v.28c.05 0 0 .05-.1.05zm-.37-.38c0-.62-.24-.85-.7-.85-.5 0-.72.28-.72.85v.05l1.42-.05zm.14-2.42l-.62.67c-.05.04-.05.1-.14.1h-.24c-.04 0-.04 0-.04-.06v-.03l.52-.67c.04-.05.04-.1.14-.1h.38s.05 0 0 .1c.05-.05.05 0 0 0zm3.12 4.17c-.2 0-.56 0-.85-.1-.1 0-.1-.04-.1-.08v-.2c0-.05.04-.1.1-.1.27.05.65.05.84.05.34 0 .52-.1.52-.38 0-.14-.1-.28-.42-.47l-.57-.34c-.33-.2-.57-.42-.57-.76 0-.56.43-.7 1-.7.28 0 .6.04.85.1.05 0 .1.04.1.08v.2c0 .04-.05.1-.1.1-.2 0-.52-.06-.85-.06-.3 0-.52.05-.52.33 0 .14.14.3.37.43l.52.33c.48.3.62.53.62.82.04.52-.4.75-.96.75z"/></g></svg>